<svg width="1835" height="1816" xmlns="http://www.w3.org/2000/svg" xmlns:xlink="http://www.w3.org/1999/xlink" xml:space="preserve" overflow="hidden"><defs><clipPath id="clip0"><rect x="2280" y="153" width="1835" height="1816"/></clipPath></defs><g clip-path="url(#clip0)" transform="translate(-2280 -153)"><path d="M2280 187.15C2280 168.29 2295.29 153 2314.15 153L2645.85 153C2664.71 153 2680 168.29 2680 187.15L2680 517.85C2680 536.71 2664.71 552 2645.85 552L2314.15 552C2295.29 552 2280 536.71 2280 517.85Z" fill="#F2495C" fill-rule="evenodd"/><path d="M2759 187.15C2759 168.29 2774.29 153 2793.15 153L3124.85 153C3143.71 153 3159 168.29 3159 187.15L3159 517.85C3159 536.711 3143.71 552 3124.85 552L2793.15 552C2774.29 552 2759 536.711 2759 517.85Z" fill="#73BF69" fill-rule="evenodd"/><path d="M3237 187.15C3237 168.29 3252.29 153 3271.15 153L3602.85 153C3621.71 153 3637 168.29 3637 187.15L3637 517.85C3637 536.71 3621.71 552 3602.85 552L3271.15 552C3252.29 552 3237 536.71 3237 517.85Z" fill="#FE9C2D" fill-rule="evenodd"/><path d="M3714 187.15C3714 168.29 3729.29 153 3748.15 153L4079.85 153C4098.71 153 4114 168.29 4114 187.15L4114 517.85C4114 536.711 4098.71 552 4079.85 552L3748.15 552C3729.29 552 3714 536.711 3714 517.85Z" fill="#73BF69" fill-rule="evenodd"/><path d="M2280 659.15C2280 640.29 2295.29 625 2314.15 625L2645.85 625C2664.71 625 2680 640.29 2680 659.15L2680 989.85C2680 1008.71 2664.71 1024 2645.85 1024L2314.15 1024C2295.29 1024 2280 1008.71 2280 989.85Z" fill="#73BF69" fill-rule="evenodd"/><path d="M2759 659.15C2759 640.29 2774.29 625 2793.15 625L3124.85 625C3143.71 625 3159 640.29 3159 659.15L3159 989.85C3159 1008.71 3143.71 1024 3124.85 1024L2793.15 1024C2774.29 1024 2759 1008.71 2759 989.85Z" fill="#FE9C2D" fill-rule="evenodd"/><path d="M3237 659.15C3237 640.29 3252.29 625 3271.15 625L3602.85 625C3621.71 625 3637 640.29 3637 659.15L3637 989.85C3637 1008.71 3621.71 1024 3602.85 1024L3271.15 1024C3252.29 1024 3237 1008.71 3237 989.85Z" fill="#73BF69" fill-rule="evenodd"/><path d="M3714 659.15C3714 640.29 3729.29 625 3748.15 625L4079.85 625C4098.71 625 4114 640.29 4114 659.15L4114 989.85C4114 1008.71 4098.71 1024 4079.85 1024L3748.15 1024C3729.29 1024 3714 1008.71 3714 989.85Z" fill="#F2495C" fill-rule="evenodd"/><path d="M2280 1131.24C2280 1112.33 2295.33 1097 2314.24 1097L2645.76 1097C2664.67 1097 2680 1112.33 2680 1131.24L2680 1462.76C2680 1481.67 2664.67 1497 2645.76 1497L2314.24 1497C2295.33 1497 2280 1481.67 2280 1462.76Z" fill="#73BF69" fill-rule="evenodd"/><path d="M2759 1131.24C2759 1112.33 2774.33 1097 2793.24 1097L3124.76 1097C3143.67 1097 3159 1112.33 3159 1131.24L3159 1462.76C3159 1481.67 3143.67 1497 3124.76 1497L2793.24 1497C2774.33 1497 2759 1481.67 2759 1462.76Z" fill="#F2495C" fill-rule="evenodd"/><path d="M3237 1131.24C3237 1112.33 3252.33 1097 3271.24 1097L3602.76 1097C3621.67 1097 3637 1112.33 3637 1131.24L3637 1462.76C3637 1481.67 3621.67 1497 3602.76 1497L3271.24 1497C3252.33 1497 3237 1481.67 3237 1462.76Z" fill="#73BF69" fill-rule="evenodd"/><path d="M3716 1131.15C3716 1112.29 3731.29 1097 3750.15 1097L4080.85 1097C4099.71 1097 4115 1112.29 4115 1131.15L4115 1462.85C4115 1481.71 4099.71 1497 4080.85 1497L3750.15 1497C3731.29 1497 3716 1481.71 3716 1462.85Z" fill="#73BF69" fill-rule="evenodd"/><path d="M2280 1603.24C2280 1584.33 2295.33 1569 2314.24 1569L2645.76 1569C2664.67 1569 2680 1584.33 2680 1603.24L2680 1934.76C2680 1953.67 2664.67 1969 2645.76 1969L2314.24 1969C2295.33 1969 2280 1953.67 2280 1934.76Z" fill="#FE9C2D" fill-rule="evenodd"/><path d="M2759 1603.24C2759 1584.33 2774.33 1569 2793.24 1569L3124.76 1569C3143.67 1569 3159 1584.33 3159 1603.24L3159 1934.76C3159 1953.67 3143.67 1969 3124.76 1969L2793.24 1969C2774.33 1969 2759 1953.67 2759 1934.76Z" fill="#73BF69" fill-rule="evenodd"/><path d="M3237 1603.24C3237 1584.33 3252.33 1569 3271.24 1569L3602.76 1569C3621.67 1569 3637 1584.33 3637 1603.24L3637 1934.76C3637 1953.67 3621.67 1969 3602.76 1969L3271.24 1969C3252.33 1969 3237 1953.67 3237 1934.76Z" fill="#73BF69" fill-rule="evenodd"/><path d="M3714 1694.81C3714 1625.33 3770.33 1569 3839.81 1569L3988.19 1569C4057.67 1569 4114 1625.33 4114 1694.81L4114 1843.19C4114 1912.67 4057.67 1969 3988.19 1969L3839.81 1969C3770.33 1969 3714 1912.67 3714 1843.19Z" fill="#B877D9" fill-rule="evenodd"/></g></svg>